<svg xmlns="http://www.w3.org/2000/svg" version="1.1" xmlns:xlink="http://www.w3.org/1999/xlink" width="480" height="480"><svg xmlns="http://www.w3.org/2000/svg" viewBox="260 260 480 480">
  <defs>
    <style>
      @media (prefers-color-scheme: dark) {
        .eye-element { stroke: rgba(0, 255, 255, 0.95); }
        .bg-element { fill: #000; }
      }
      @media (prefers-color-scheme: light) {
        .eye-element { stroke: rgba(232, 160, 48, 0.95); }
        .bg-element { fill: #080604; }
      }
    </style>
    
    <clipPath id="SvgjsClipPath1019">
      <path d="M 350 500 C 390 430, 440 400, 500 400 C 560 400, 610 430, 650 500 C 610 570, 560 600, 500 600 C 440 600, 390 570, 350 500 Z"></path>
    </clipPath>
  </defs>

  <!-- Background Circle -->
  <circle cx="500" cy="500" r="238" class="bg-element" opacity="0.95"></circle>

  <!-- Eye Contour -->
  <path d="M 350 500 C 390 430, 440 400, 500 400 C 560 400, 610 430, 650 500 C 610 570, 560 600, 500 600 C 440 600, 390 570, 350 500 Z" fill="none" class="eye-element" stroke-width="12" stroke-linecap="round" stroke-linejoin="round"></path>

  <g clip-path="url(#eyeContourClip)">
    <!-- Iris -->
    <circle cx="500" cy="500" r="80" fill="none" class="eye-element" stroke-width="10"></circle>

    <!-- Pupil -->
    <circle cx="500" cy="500" r="35" fill="none" class="eye-element" stroke-width="8"></circle>
  </g>
</svg><style>@media (prefers-color-scheme: light) { :root { filter: none; } }
@media (prefers-color-scheme: dark) { :root { filter: none; } }
</style></svg>